<?xml version="1.0" encoding="UTF-8"?>
<svg width="31px" height="23px" viewBox="0 0 31 23" version="1.1" xmlns="http://www.w3.org/2000/svg" xmlns:xlink="http://www.w3.org/1999/xlink">
    <!-- Generator: Sketch 48.2 (47327) - http://www.bohemiancoding.com/sketch -->
    <title>Fill 54</title>
    <desc>Created with Sketch.</desc>
    <defs></defs>
    <g id="index1" stroke="none" stroke-width="1" fill="none" fill-rule="evenodd" transform="translate(-777.000000, -126.000000)">
        <g id="Group-17" transform="translate(750.000000, 114.000000)" fill="#222D65">
            <g id="Group-16">
                <g id="Group-15" transform="translate(27.000000, 10.000000)">
                    <path d="M18.4542382,2 C19.5818079,2 20.6102506,2.4584624 21.3598986,3.20191495 C22.1033512,3.93917206 22.5803999,4.96761476 22.5803999,6.11377077 C22.5803999,7.24753591 22.1033512,8.2759786 21.3598986,9.01943115 L21.3103351,9.06899465 C20.5668826,9.78147001 19.5694171,10.2213461 18.47902,10.233737 L3.85497043,10.233737 C3.39031259,10.233737 3,9.84342439 3,9.37257111 C3,8.90171783 3.39031259,8.51760068 3.85497043,8.51760068 L15.1210926,8.51760068 C14.6254576,7.84229794 14.3404675,7.01210926 14.3404675,6.11377077 C14.3404675,4.96761476 14.7989299,3.93917206 15.5423824,3.20191495 C16.285835,2.4584624 17.3142777,2 18.4542382,2 Z M20.1579837,4.41002534 C19.724303,3.97634469 19.1171501,3.70994086 18.4542382,3.70994086 C17.7851309,3.70994086 17.1841735,3.97634469 16.7442974,4.41002534 C16.3106167,4.84990144 16.0442129,5.45085891 16.0442129,6.11377077 C16.0442129,6.77668262 16.3106167,7.38383554 16.7442974,7.81751619 C17.1841735,8.24500141 17.7727401,8.51140524 18.4232611,8.51760068 L18.47902,8.51760068 C19.1171501,8.51760068 19.6995213,8.25739228 20.120811,7.85468882 L20.1579837,7.81751619 C20.5916643,7.38383554 20.870459,6.77668262 20.870459,6.11377077 C20.870459,5.45085891 20.5916643,4.84990144 20.1579837,4.41002534 Z M26.8800338,5.68009012 C25.7338778,5.68009012 24.7054351,6.14474796 23.9619825,6.89439594 C23.21853,7.63165306 22.7600676,8.66009575 22.7600676,9.79386088 C22.7600676,10.6921994 23.0512532,11.5285835 23.5406928,12.2038862 L0.854970431,12.2038862 C0.390312588,12.2038862 0,12.5818079 0,13.0588567 C0,13.5235145 0.390312588,13.9076317 0.854970431,13.9076317 L26.8986201,13.9076317 C28.0261898,13.9014362 29.0484371,13.4491692 29.7856942,12.7119121 C30.5291467,11.9622642 31,10.9338215 31,9.79386088 C31,8.66009575 30.5291467,7.63165306 29.7856942,6.89439594 C29.0422416,6.14474796 28.0137989,5.68009012 26.8800338,5.68009012 Z M28.5775838,8.09011546 C29.0174599,8.52379611 29.2962546,9.13094903 29.2962546,9.79386088 C29.2962546,10.4629682 29.0174599,11.0639257 28.5775838,11.5038017 C28.1439031,11.9250915 27.5491411,12.1976908 26.8986201,12.2038862 L26.8428612,12.2038862 C26.1985356,12.1976908 25.6037736,11.9250915 25.1824838,11.5038017 C24.7426077,11.0639257 24.463813,10.4629682 24.463813,9.79386088 C24.463813,9.13094903 24.7426077,8.52379611 25.1824838,8.09011546 C25.6161645,7.65643481 26.2233174,7.38383554 26.8800338,7.38383554 C27.5367502,7.38383554 28.1439031,7.65643481 28.5775838,8.09011546 Z M20.6536187,22.4201633 C21.3165306,22.4201633 21.917488,22.1475641 22.3573641,21.7138834 L22.3635596,21.7138834 C22.7910448,21.2802028 23.063644,20.6730498 23.063644,20.0039426 C23.063644,19.3286398 22.7910448,18.7400732 22.3573641,18.2940017 L22.3263869,18.2630245 C21.8865108,17.8541256 21.3103351,17.6001126 20.6660096,17.5877218 L20.6102506,17.5877218 C19.9659251,17.6001126 19.3711631,17.8727119 18.9498733,18.3001971 L18.9003098,18.3249789 C18.4976063,18.764855 18.2312025,19.3534216 18.2312025,20.0039426 C18.2312025,20.6730498 18.5099972,21.2802028 18.9498733,21.7138834 C19.3835539,22.1475641 19.9907068,22.4201633 20.6536187,22.4201633 Z M20.6536187,24.1177133 C19.5198536,24.1177133 18.47902,23.6592509 17.7355674,22.9096029 C16.9921149,22.1599549 16.5274571,21.1439031 16.5274571,20.0039426 C16.5274571,19.1117995 16.8186426,18.2754154 17.3142777,17.5877218 L3.85497043,17.5877218 C3.39031259,17.5877218 3,17.2159955 3,16.7389468 C3,16.2680935 3.39031259,15.8963672 3.85497043,15.8963672 L20.6660096,15.8963672 C21.7687975,15.8963672 22.7724585,16.3424387 23.5097156,17.0549141 L23.5592791,17.0920867 C24.2965362,17.8355393 24.7673895,18.863982 24.7673895,20.0039426 C24.7673895,21.1315123 24.3089271,22.1599549 23.57167,22.8972121 C22.8096311,23.6592509 21.7811884,24.1177133 20.6536187,24.1177133 Z" id="Fill-54"></path>
                </g>
            </g>
        </g>
    </g>
</svg>